<svg version="1.1" xmlns="http://www.w3.org/2000/svg" width="512px" height="512px" transform="rotate(0) scale(1, 1)">
<path d="M0 0 C1.64913709 -0.00302318 3.29827277 -0.0069135 4.94740599 -0.01159257 C9.4645583 -0.0218599 13.98163112 -0.01969396 18.49878991 -0.01541197 C23.3762161 -0.01294244 28.25362328 -0.02196176 33.13104248 -0.02944946 C42.68102363 -0.04219235 52.23097666 -0.04399065 61.78096489 -0.0416492 C69.54476232 -0.03986536 77.30855123 -0.04161711 85.07234764 -0.04587364 C86.73053826 -0.04676643 86.73053826 -0.04676643 88.42222768 -0.04767724 C90.6680651 -0.04888901 92.91390252 -0.05010315 95.15973993 -0.05131962 C116.21688204 -0.06219367 137.27400814 -0.06003336 158.33115115 -0.05393478 C177.58627471 -0.04876624 196.84134767 -0.06001964 216.09646121 -0.07903299 C235.87654593 -0.09841471 255.65660672 -0.10666678 275.436701 -0.10290974 C286.53810745 -0.10099814 297.63947083 -0.10348124 308.74086952 -0.11762428 C318.19207946 -0.12954331 327.64321982 -0.13093711 337.09443072 -0.11883412 C341.91413431 -0.11294902 346.73371068 -0.11183583 351.55340576 -0.12383652 C355.97071546 -0.13470723 360.38779191 -0.13157783 364.80509075 -0.11757483 C366.39789134 -0.11493117 367.99071029 -0.11728398 369.58349285 -0.1253107 C385.51346973 -0.19997781 399.43686202 2.22209255 411.56291199 13.26069641 C418.47982459 20.56326422 423.94063001 30.83541492 423.93595982 41.0164299 C423.93795086 41.97536109 423.93994191 42.93429227 423.9419933 43.92228198 C423.93908045 44.9728595 423.93616761 46.02343702 423.9331665 47.10585022 C423.93444814 48.78319146 423.93444814 48.78319146 423.93575567 50.49441838 C423.93740746 54.25474332 423.93189397 58.015024 423.92643738 61.77534485 C423.92615542 64.46555685 423.92626935 67.15576611 423.92687988 69.84597778 C423.92740443 75.64469107 423.92426488 81.44339312 423.91864204 87.24210358 C423.91051763 95.62608176 423.90791086 104.01005451 423.90665405 112.3940362 C423.90446502 125.99623982 423.89780894 139.59843745 423.88835144 153.20063782 C423.87917349 166.4145047 423.87209453 179.62836995 423.86784363 192.84223938 C423.86744954 194.06383773 423.86744954 194.06383773 423.8670475 195.31011483 C423.86574247 199.39568374 423.86447876 203.48125265 423.86323559 207.56682158 C423.8528676 241.46478517 423.83443177 275.36273761 423.81291199 309.26069641 C390.48291199 309.26069641 357.15291199 309.26069641 322.81291199 309.26069641 C320.83291199 303.98069641 318.85291199 298.70069641 316.81291199 293.26069641 C312.33883185 285.32553541 307.1896646 278.74893071 300.81291199 272.26069641 C300.19931824 271.63421204 299.58572449 271.00772766 298.95353699 270.36225891 C286.31071977 258.42182043 267.99362688 251.1840649 250.65632629 251.11352539 C249.44273437 251.10637009 248.22914246 251.09921478 246.97877502 251.09184265 C245.66027557 251.08915375 244.34177612 251.08646484 242.98332214 251.08369446 C241.5699904 251.07742242 240.15666027 251.07077497 238.74333191 251.06378174 C234.11289094 251.04281527 229.48244995 251.03238171 224.85197449 251.02241516 C223.25068012 251.0183639 221.64938592 251.01424687 220.04809189 251.01006508 C212.51744964 250.99102441 204.98681709 250.97679478 197.45615542 250.96845311 C188.80120215 250.95870479 180.14650626 250.93244377 171.49164355 250.89195222 C164.77879946 250.86163918 158.06602847 250.84696969 151.35311735 250.8436721 C147.35523042 250.84133759 143.35761874 250.8325895 139.35980606 250.80721092 C135.58890041 250.78365946 131.81844593 250.77980345 128.04748535 250.78997231 C126.03239528 250.79069147 124.01732671 250.77178952 122.00233459 250.75190735 C100.06822176 250.87455808 80.53583909 259.18669323 64.50041199 274.01069641 C55.18296247 283.9079872 49.06653781 296.49981894 44.81291199 309.26069641 C11.48291199 309.26069641 -21.84708801 309.26069641 -56.18708801 309.26069641 C-56.27532002 274.66933911 -56.34915732 240.07809127 -56.39134933 205.48665525 C-56.39635198 201.40002359 -56.40152928 197.31339217 -56.40681458 193.22676086 C-56.40786382 192.41320845 -56.40891306 191.59965603 -56.4099941 190.76145051 C-56.427385 177.59976338 -56.45891543 164.43814636 -56.4956992 151.27650078 C-56.53314524 137.76489377 -56.5553316 124.25332339 -56.56344199 110.74166662 C-56.56892218 102.40859875 -56.58621191 94.07572904 -56.61875388 85.74272219 C-56.63994704 80.02341244 -56.64627723 74.30420469 -56.64109352 68.58485856 C-56.63853914 65.28823282 -56.64457893 61.99202398 -56.66390991 58.69544411 C-56.68388601 55.11256693 -56.67899842 51.53052948 -56.66810608 47.94763184 C-56.67975744 46.91744421 -56.69140881 45.88725658 -56.70341325 44.82585114 C-56.61385326 33.88562372 -52.88743323 24.83583408 -46.18708801 16.26069641 C-45.70884583 15.64452454 -45.23060364 15.02835266 -44.73786926 14.39350891 C-33.22571758 1.34447048 -16.21601477 -0.04214764 0 0 Z M187.81291199 102.26069641 C183.00268296 110.28861016 179.87208649 119.32277686 176.45353699 128.00679016 C175.85809934 129.5100332 175.2622878 131.01312818 174.66612244 132.51608276 C173.1106377 136.44070857 171.56064031 140.3674792 170.01170349 144.29469299 C168.74287759 147.50891591 167.47006878 150.72155436 166.19707108 153.93412685 C164.67705481 157.77031862 163.15879345 161.60720384 161.64103699 165.44429016 C161.35230965 166.17410032 161.06358231 166.90391048 160.76610565 167.65583611 C159.95166316 169.71572796 159.13841235 171.77608571 158.3256073 173.83662415 C157.86325684 175.00781296 157.40090637 176.17900177 156.92454529 177.38568115 C154.92444027 182.55854927 154.14142398 186.73747109 154.81291199 192.26069641 C157.17694764 197.07969217 160.03616092 199.82548999 164.81291199 202.26069641 C170.0418716 202.91431636 173.40840856 202.13319865 177.81291199 199.26069641 C183.31691882 193.88447746 185.39381649 187.30097825 188.00041199 180.19819641 C189.03401488 177.43000947 190.07683241 174.66534729 191.12150574 171.90132141 C191.4021286 171.15629868 191.68275146 170.41127594 191.97187805 169.64367676 C194.40280542 163.23509903 196.98708212 156.89458473 199.59806824 150.55757141 C200.42683637 148.53431204 201.25536798 146.51095577 202.08366394 144.48750305 C203.31460856 141.48124076 204.55058493 138.47765826 205.80445862 135.48088074 C206.98463314 132.65723331 208.14274664 129.82537218 209.29728699 126.99116516 C209.65295242 126.15675903 210.00861786 125.32235291 210.37506104 124.46266174 C212.68390113 118.71906148 213.63155639 113.45211706 212.81291199 107.26069641 C210.64992361 102.85460898 208.4161072 100.06194671 203.81291199 98.26069641 C197.4743494 97.40069043 192.57245616 97.61183931 187.81291199 102.26069641 Z M105.51603699 117.29194641 C104.84119263 117.96487732 104.16634827 118.63780823 103.47105408 119.33113098 C102.05341398 120.74741614 100.63827214 122.1662059 99.22550964 123.58735657 C97.06284156 125.76076719 94.8896683 127.9232615 92.71525574 130.08491516 C91.33570748 131.46578448 89.95677946 132.84727379 88.57853699 134.22944641 C87.92959473 134.87434021 87.28065247 135.51923401 86.61204529 136.18367004 C85.71035614 137.09481567 85.71035614 137.09481567 84.79045105 138.02436829 C84.26227783 138.55413269 83.73410461 139.08389709 83.18992615 139.62971497 C80.39144443 142.94432994 79.50488554 145.83599419 79.43791199 150.13569641 C79.40955261 150.95811829 79.38119324 151.78054016 79.35197449 152.62788391 C80.50653851 159.22259703 86.28791661 164.02992886 90.84416199 168.55757141 C91.5170929 169.23241577 92.1900238 169.90726013 92.88334656 170.60255432 C94.29963171 172.02019442 95.71842147 173.43533626 97.13957214 174.84809875 C99.31298277 177.01076684 101.47547708 179.1839401 103.63713074 181.35835266 C105.01800006 182.73790092 106.39948936 184.11682894 107.78166199 185.49507141 C108.74900269 186.4684848 108.74900269 186.4684848 109.73588562 187.46156311 C110.34331604 188.06268921 110.95074646 188.66381531 111.57658386 189.28315735 C112.10634827 189.81133057 112.63611267 190.33950378 113.18193054 190.88368225 C117.33155966 194.38715439 121.06709087 194.69359378 126.34025574 194.57710266 C131.03335604 193.97656376 133.65711619 191.57059832 136.68791199 188.13569641 C138.36338951 183.85392052 138.92422836 179.74991226 137.81291199 175.26069641 C134.03888275 168.94848763 128.66203989 163.86201479 123.43791199 158.76069641 C122.7018573 158.03366516 121.96580261 157.30663391 121.20744324 156.55757141 C119.41380569 154.78722785 117.61564266 153.02177138 115.81291199 151.26069641 C117.28583739 147.82901158 119.20267942 145.66108032 121.87541199 143.07319641 C122.67205261 142.29202454 123.46869324 141.51085266 124.28947449 140.70600891 C125.97176615 139.07580058 127.65405782 137.44559224 129.33634949 135.81538391 C130.13299011 135.03421204 130.92963074 134.25304016 131.75041199 133.44819641 C132.48131042 132.7405011 133.21220886 132.03280579 133.96525574 131.30366516 C137.85155946 127.00654709 138.25387229 123.37149941 138.12931824 117.73335266 C137.52877934 113.04025236 135.12281389 110.41649221 131.68791199 107.38569641 C120.12841935 102.86241668 113.24875406 109.51037885 105.51603699 117.29194641 Z M230.93791199 112.38569641 C229.28089126 116.62030493 228.9585977 120.78731843 229.81291199 125.26069641 C233.04343008 131.34730596 238.18328766 135.85518946 243.06291199 140.63569641 C243.90338074 141.46714172 244.74384949 142.29858704 245.60978699 143.15522766 C247.67301701 145.19501189 249.74078322 147.22995927 251.81291199 149.26069641 C250.33998659 152.69238125 248.42314455 154.8603125 245.75041199 157.44819641 C244.55545105 158.61995422 244.55545105 158.61995422 243.33634949 159.81538391 C241.65405782 161.44559224 239.97176615 163.07580058 238.28947449 164.70600891 C237.09451355 165.87776672 237.09451355 165.87776672 235.87541199 167.07319641 C235.14451355 167.78089172 234.41361511 168.48858704 233.66056824 169.21772766 C229.77426452 173.51484573 229.37195169 177.14989341 229.49650574 182.78804016 C230.09704464 187.48114046 232.50301008 190.10490061 235.93791199 193.13569641 C240.17252051 194.79271714 244.33953401 195.1150107 248.81291199 194.26069641 C253.94453194 191.24283169 257.92895485 187.43669044 262.10978699 183.22944641 C262.78463135 182.5565155 263.45947571 181.88358459 264.1547699 181.19026184 C265.57241 179.77397669 266.98755184 178.35518692 268.40031433 176.93403625 C270.56298242 174.76062563 272.73615567 172.59813132 274.91056824 170.43647766 C276.2901165 169.05560834 277.66904451 167.67411904 279.04728699 166.29194641 C279.69622925 165.64705261 280.34517151 165.00215881 281.01377869 164.33772278 C281.61490479 163.73029236 282.21603088 163.12286194 282.83537292 162.49702454 C283.36354614 161.96726013 283.89171936 161.43749573 284.43589783 160.89167786 C287.23437955 157.57706288 288.12093843 154.68539863 288.18791199 150.38569641 C288.23045105 149.1520636 288.23045105 149.1520636 288.27384949 147.89350891 C287.11928547 141.29879579 281.33790737 136.49146396 276.78166199 131.96382141 C276.10873108 131.28897705 275.43580017 130.61413269 274.74247742 129.9188385 C273.32619226 128.5011984 271.9074025 127.08605656 270.48625183 125.67329407 C268.31284121 123.51062598 266.15034689 121.33745273 263.98869324 119.16304016 C262.60782392 117.7834919 261.22633461 116.40456388 259.84416199 115.02632141 C259.19926819 114.37737915 258.55437439 113.72843689 257.88993835 113.05982971 C257.28250793 112.45870361 256.67507751 111.85757751 256.04924011 111.23823547 C255.51947571 110.71006226 254.9897113 110.18188904 254.44389343 109.63771057 C250.29426432 106.13423843 246.55873311 105.82779904 241.28556824 105.94429016 C236.59246794 106.54482906 233.96870779 108.9507945 230.93791199 112.38569641 Z " fill="#ffdb70" transform="translate(72.18708801269531,25.739303588867188)"/>
<path d="M0 0 C1.18289612 -0.0071553 2.36579224 -0.01431061 3.58453369 -0.02168274 C4.8739386 -0.02437164 6.16334351 -0.02706055 7.49182129 -0.02983093 C8.87046477 -0.03610115 10.24910659 -0.04274844 11.62774658 -0.04974365 C16.14818152 -0.07072841 20.66861656 -0.08114408 25.18908691 -0.09111023 C26.75051389 -0.09516054 28.31194069 -0.09927754 29.87336731 -0.10346031 C37.21445944 -0.12250348 44.55554159 -0.13673366 51.89665365 -0.14507228 C60.3433678 -0.15482736 68.78981869 -0.18110511 77.23644018 -0.22157317 C83.78191509 -0.25184552 90.32731503 -0.26655182 96.87285852 -0.26985329 C100.77397523 -0.27219204 104.67481046 -0.28099698 108.57585144 -0.30631447 C112.25316961 -0.32979452 115.93002495 -0.33374969 119.60739899 -0.32355309 C121.5789439 -0.32283073 123.55046636 -0.34178289 125.52191162 -0.36161804 C140.38134334 -0.27602281 152.83959388 4.45868335 164.09533691 14.14717102 C166.15783691 16.52217102 166.15783691 16.52217102 168.09533691 19.14717102 C168.73471191 19.99279602 169.37408691 20.83842102 170.03283691 21.70967102 C177.45247561 33.37332186 179.09697547 46.44245222 181.30236816 59.81513977 C181.67550506 62.02185395 182.04951914 64.22841996 182.42436218 66.43484497 C183.20420399 71.04520013 183.97368768 75.65713043 184.73571777 80.27046204 C185.70592178 86.1391814 186.70143116 92.00326449 187.70482349 97.86638927 C188.48115946 102.41960052 189.24398833 106.97499854 190.00293541 111.53113747 C190.36446594 113.69203357 190.7299903 115.85226592 191.09983253 118.01175499 C197.32521733 154.51090464 197.32521733 154.51090464 188.47033691 167.53779602 C182.63438185 174.88137281 174.42356228 179.7487056 165.09533691 181.14717102 C154.83580726 181.6601475 146.3132781 179.58826005 138.09533691 173.14717102 C132.81809517 168.02006546 129.62306003 161.9773479 126.34533691 155.45967102 C125.8345459 154.46105042 125.32375488 153.46242981 124.79748535 152.43354797 C123.2205242 149.34285059 121.65764705 146.24529482 120.09533691 143.14717102 C119.09583934 141.18597738 118.09585575 139.22503135 117.09533691 137.26435852 C116.17766769 135.45497081 115.26095494 133.64509758 114.34533691 131.83467102 C113.9151123 130.98751526 113.4848877 130.1403595 113.04162598 129.26753235 C112.65200684 128.4891803 112.2623877 127.71082825 111.86096191 126.90888977 C111.51839355 126.22786194 111.1758252 125.54683411 110.82287598 124.84516907 C110.09533691 123.14717102 110.09533691 123.14717102 110.09533691 121.14717102 C80.39533691 121.14717102 50.69533691 121.14717102 20.09533691 121.14717102 C19.43533691 123.12717102 18.77533691 125.10717102 18.09533691 127.14717102 C17.53084657 128.44701972 16.93847266 129.73533695 16.31115723 131.00605774 C15.9703009 131.70053009 15.62944458 132.39500244 15.27825928 133.11051941 C14.91367615 133.84191132 14.54909302 134.57330322 14.17346191 135.32685852 C13.59975861 136.48425034 13.59975861 136.48425034 13.01446533 137.6650238 C12.20628744 139.29146795 11.39596285 140.91684698 10.58361816 142.54121399 C9.35477193 145.00326751 8.1388593 147.4714254 6.92346191 149.94013977 C6.13258186 151.52777145 5.34093935 153.11502358 4.54846191 154.70185852 C4.19197571 155.42920197 3.8354895 156.15654541 3.46820068 156.90592957 C-2.13122899 168.00731181 -9.08148094 175.72728985 -20.90466309 180.14717102 C-29.81324951 182.81974695 -39.23208297 181.16644753 -47.32653809 176.85810852 C-55.79623404 171.5432322 -61.50789844 164.98585177 -63.90466309 155.14717102 C-65.02750557 141.47955941 -62.66052345 128.23788021 -60.36169434 114.81513977 C-59.99173629 112.60387178 -59.62258575 110.39246855 -59.25419617 108.18093872 C-58.48389389 103.57638662 -57.70364442 98.97366439 -56.9161377 94.37202454 C-55.91276582 88.50393059 -54.93510481 82.63189121 -53.96489429 76.75823498 C-53.20923624 72.20172083 -52.43972449 67.64762805 -51.66614342 63.09412575 C-51.30029547 60.93051806 -50.93870329 58.76618589 -50.58164406 56.60111046 C-47.22411163 36.32702845 -42.59363737 20.36831274 -25.28747559 7.63545227 C-17.46626955 2.75040391 -9.19183056 0.03829826 0 0 Z M7.22033691 52.52217102 C5.26385777 57.08728903 4.6448117 60.44677508 6.15783691 65.20967102 C7.94107406 69.40268809 10.18461405 71.71219264 14.09533691 74.14717102 C18.43499019 75.56726081 21.47017543 75.33471947 25.84533691 74.02217102 C29.83469538 71.72061806 32.04730471 69.24323542 34.09533691 65.14717102 C34.52545511 60.93697564 34.56530042 57.26024247 32.90783691 53.33467102 C30.38083187 50.28483734 27.64615125 47.92257819 24.09533691 46.14717102 C16.9044211 45.53777138 11.93718288 46.54749946 7.22033691 52.52217102 Z M97.22033691 52.52217102 C95.26385777 57.08728903 94.6448117 60.44677508 96.15783691 65.20967102 C97.94107406 69.40268809 100.18461405 71.71219264 104.09533691 74.14717102 C108.43499019 75.56726081 111.47017543 75.33471947 115.84533691 74.02217102 C119.83469538 71.72061806 122.04730471 69.24323542 124.09533691 65.14717102 C124.52545511 60.93697564 124.56530042 57.26024247 122.90783691 53.33467102 C120.38083187 50.28483734 117.64615125 47.92257819 114.09533691 46.14717102 C106.9044211 45.53777138 101.93718288 46.54749946 97.22033691 52.52217102 Z " fill="#ffdb70" transform="translate(190.9046630859375,304.8528289794922)"/>
<path d="M0 0 C13.45623242 -0.09268347 26.91238889 -0.16375693 40.3688755 -0.20724869 C46.61728821 -0.22812265 52.86548252 -0.25643747 59.11376953 -0.30175781 C65.14380414 -0.34522137 71.17362867 -0.36913855 77.20380783 -0.37950897 C79.50432009 -0.38689934 81.80482086 -0.40133093 84.10524368 -0.42292023 C87.32773936 -0.45196013 90.54936717 -0.45595564 93.77197266 -0.45410156 C94.72287781 -0.46848267 95.67378296 -0.48286377 96.65350342 -0.49768066 C102.40218393 -0.46189519 105.60613257 0.19838197 110 4 C112.13739323 8.27478646 111.22697829 13.94737219 111.24023438 18.69360352 C111.24991561 20.79418911 111.28092684 22.89378575 111.3125 24.99414062 C111.31903286 26.3359317 111.32428222 27.67772977 111.328125 29.01953125 C111.3374707 30.23745361 111.34681641 31.45537598 111.35644531 32.71020508 C110.59129811 39.77209451 105.43793884 43.85574773 100.62890625 48.63671875 C99.9101683 49.35737015 99.19143036 50.07802155 98.45091248 50.82051086 C96.93449547 52.3382855 95.41556327 53.85355084 93.89428711 55.36645508 C91.56716457 57.68285692 89.25091456 60.00974579 86.93554688 62.33789062 C85.45897431 63.81314183 83.98178159 65.28777264 82.50390625 66.76171875 C81.81212784 67.45754562 81.12034943 68.1533725 80.40760803 68.87028503 C79.43155861 69.83687798 79.43155861 69.83687798 78.43579102 70.82299805 C77.58332542 71.67307686 77.58332542 71.67307686 76.71363831 72.54032898 C72.94514771 75.75031588 70.04254981 76.24804508 65.12988281 76.22705078 C63.35849945 76.22682419 63.35849945 76.22682419 61.55133057 76.22659302 C59.64646881 76.21110916 59.64646881 76.21110916 57.703125 76.1953125 C56.39921814 76.1924826 55.09531128 76.18965271 53.75189209 76.18673706 C50.2929105 76.17911721 46.83409807 76.15948308 43.37518311 76.1373291 C39.84259326 76.11683503 36.30997597 76.10772774 32.77734375 76.09765625 C25.85149321 76.07623548 18.92575474 76.04211956 12 76 C10.43053776 66.82992694 8.8655294 57.65910812 7.30618286 48.48730946 C6.58195708 44.22838648 5.85620679 39.9697351 5.12695312 35.71166992 C4.42308523 31.60149186 3.7232473 27.49064606 3.02618408 23.3793087 C2.75969497 21.81181131 2.491761 20.24455884 2.22235107 18.67756081 C1.84491306 16.48074218 1.47264721 14.28310453 1.1015625 12.08520508 C0.88838379 10.83500076 0.67520508 9.58479645 0.45556641 8.29670715 C0.06476668 5.46868423 -0.09528178 2.84702888 0 0 Z " fill="#ffdb70" transform="translate(401,364)"/>
<path d="M0 0 C0.87782135 -0.00137466 1.7556427 -0.00274933 2.6600647 -0.00416565 C3.62535095 -0.00057037 4.59063721 0.0030249 5.58517456 0.00672913 C7.10716965 0.00651009 7.10716965 0.00651009 8.65991211 0.00628662 C12.02548332 0.00698524 15.3909997 0.0147753 18.75656128 0.02259827 C21.08540822 0.02446263 23.41425555 0.02588644 25.74310303 0.02688599 C31.88175534 0.03070975 38.02038411 0.04053886 44.1590271 0.05158997 C50.41939984 0.0618071 56.67977636 0.06638426 62.94015503 0.07142639 C75.23052997 0.08216123 87.52088742 0.09923598 99.81124878 0.12025452 C99.30210312 6.23416571 98.7223451 12.28407032 97.68795776 18.33583069 C97.46780502 19.63634872 97.24765228 20.93686676 97.02082825 22.27679443 C96.78309164 23.65561991 96.54526096 25.03442916 96.30734253 26.41322327 C96.06178013 27.85475491 95.81659333 29.29635059 95.57176208 30.73800659 C94.93270329 34.49501372 94.28861518 38.25114093 93.6434021 42.00709534 C92.98336395 45.85483397 92.32818771 49.70340013 91.6725769 53.55189514 C90.39016959 61.07549033 89.10243708 68.59816077 87.81124878 76.12025452 C80.22235516 76.2131243 72.63352081 76.28410527 65.04418755 76.3275032 C61.51972184 76.34833721 57.99564625 76.37657654 54.47140503 76.42201233 C50.41537835 76.47397408 46.35975849 76.49323419 42.30343628 76.51087952 C41.04385101 76.53152466 39.78426575 76.5521698 38.48651123 76.57344055 C27.6300324 76.5762184 27.6300324 76.5762184 22.81124878 72.12025452 C21.96377579 71.34273834 21.96377579 71.34273834 21.09918213 70.54951477 C19.12177734 68.69599752 17.20620797 66.7925102 15.29562378 64.87025452 C14.59858337 64.17512756 13.90154297 63.48000061 13.18338013 62.7638092 C11.71866145 61.30044579 10.25644245 59.83457656 8.79660034 58.36634827 C6.56150534 56.12051231 4.31590099 53.88558366 2.06906128 51.65150452 C0.64394013 50.22506229 -0.78056078 48.79800006 -2.20437622 47.37025452 C-2.87519226 46.70348694 -3.5460083 46.03671936 -4.2371521 45.3497467 C-4.85829895 44.72229553 -5.4794458 44.09484436 -6.11941528 43.44837952 C-6.93832245 42.62708557 -6.93832245 42.62708557 -7.77377319 41.78919983 C-12.40535972 36.32631314 -11.59577461 30.11055319 -11.61428833 23.27577209 C-11.62619757 21.19214165 -11.67541565 19.11146466 -11.7258606 17.02845764 C-11.73295044 15.70910217 -11.74004028 14.3897467 -11.74734497 13.03041077 C-11.76079956 11.8252179 -11.77425415 10.62002502 -11.78811646 9.37831116 C-11.02233923 5.2156647 -9.40858008 3.76889685 -6.18875122 1.12025452 C-3.87669411 -0.03577404 -2.57215498 -0.00309898 0 0 Z " fill="#ffdb70" transform="translate(11.188751220703125,363.87974548339844)"/>
</svg>