<svg version="1.1" xmlns="http://www.w3.org/2000/svg" width="512px" height="512px" transform="rotate(0) scale(1, 1)">
<path d="M0 0 C9.47463573 6.94911196 16.95161439 16.64389635 19.421875 28.35546875 C20.71840454 42.36291128 19.58515159 54.65161646 11.046875 66.29296875 C4.88593738 73.54035128 -0.73461709 76.93371479 -9.578125 81.35546875 C-9.908125 91.91546875 -10.238125 102.47546875 -10.578125 113.35546875 C10.871875 113.35546875 32.321875 113.35546875 54.421875 113.35546875 C57.721875 119.29546875 61.021875 125.23546875 64.421875 131.35546875 C66.82395493 135.5321465 69.23315198 139.70060731 71.671875 143.85546875 C72.24421875 144.83515625 72.8165625 145.81484375 73.40625 146.82421875 C76.6578407 152.38148286 79.95750836 157.90230731 83.34667969 163.37695312 C84.421875 165.35546875 84.421875 165.35546875 84.421875 167.35546875 C85.58759033 166.67387695 85.58759033 166.67387695 86.77685547 165.97851562 C89.6560473 164.29780194 92.53743365 162.62098414 95.42041016 160.94677734 C96.66871197 160.22079385 97.91611365 159.49326033 99.16259766 158.76416016 C100.9524176 157.71760673 102.74538012 156.67663492 104.5390625 155.63671875 C105.61784668 155.00830078 106.69663086 154.37988281 107.80810547 153.73242188 C110.421875 152.35546875 110.421875 152.35546875 112.421875 152.35546875 C112.091875 151.36546875 111.761875 150.37546875 111.421875 149.35546875 C110.14295307 136.61543871 113.84083413 124.56346163 121.421875 114.35546875 C127.42706913 107.61369204 133.9613244 103.40639457 142.421875 100.35546875 C143.08703125 100.11054687 143.7521875 99.865625 144.4375 99.61328125 C155.75714537 96.14128918 167.86506746 98.35045066 178.484375 102.98046875 C189.92560444 109.15920251 197.98860208 119.60468738 201.7265625 131.91796875 C204.37841493 145.0282504 202.77887158 157.73137233 195.609375 169.16796875 C187.56257178 180.32055567 177.93551651 186.52878982 164.421875 189.35546875 C152.56465704 190.66851638 140.7850876 188.63695852 131.203125 181.2109375 C128.61926346 179.970004 127.16641887 180.61522382 124.421875 181.35546875 C122.54815402 182.26953313 120.70933297 183.25709908 118.90234375 184.296875 C117.88076172 184.88017578 116.85917969 185.46347656 115.80664062 186.06445312 C114.75154297 186.67611328 113.69644531 187.28777344 112.609375 187.91796875 C111.53494141 188.53349609 110.46050781 189.14902344 109.35351562 189.78320312 C106.70599982 191.30111219 104.06235644 192.82536639 101.421875 194.35546875 C105.41853766 201.72679394 109.48073352 209.05732042 113.609375 216.35546875 C114.16383301 217.341521 114.71829102 218.32757324 115.28955078 219.34350586 C118.04269854 224.22444241 120.83378485 229.07145935 123.74609375 233.859375 C124.26083252 234.71466797 124.77557129 235.56996094 125.3059082 236.45117188 C126.27598333 238.05615617 127.25956522 239.65307972 128.25854492 241.24023438 C128.69142822 241.96017578 129.12431152 242.68011719 129.5703125 243.421875 C129.95364746 244.04006104 130.33698242 244.65824707 130.73193359 245.29516602 C132.03506498 249.1865764 130.85218161 252.44383169 129.15356445 256.04248047 C128.61948975 256.94756348 128.08541504 257.85264648 127.53515625 258.78515625 C126.9326001 259.81721191 126.33004395 260.84926758 125.70922852 261.91259766 C125.05752686 263.00749512 124.4058252 264.10239258 123.734375 265.23046875 C122.72138172 266.95800273 121.70839376 268.68553986 120.69578552 270.41329956 C119.64739921 272.19866636 118.59474092 273.9814517 117.54101562 275.76367188 C115.45069158 279.30169793 113.37896272 282.85033979 111.3125 286.40234375 C108.0221364 292.05720572 104.72465954 297.70785349 101.421875 303.35546875 C105.9904695 306.89626092 110.93112242 309.70717553 115.921875 312.60546875 C116.87191406 313.17265625 117.82195312 313.73984375 118.80078125 314.32421875 C119.71730469 314.8553125 120.63382812 315.38640625 121.578125 315.93359375 C122.41150391 316.4224707 123.24488281 316.91134766 124.10351562 317.41503906 C126.78905105 318.50441169 127.76771366 318.39985973 130.421875 317.35546875 C132.35461602 316.40842565 134.27000143 315.42556757 136.171875 314.41796875 C147.54212344 308.70544634 158.67753598 307.48091917 171.171875 310.91796875 C177.40709558 313.07222988 182.36522378 316.15648275 187.421875 320.35546875 C188.06898438 320.87882812 188.71609375 321.4021875 189.3828125 321.94140625 C197.25639124 328.98980643 201.87931462 339.92675913 202.7578125 350.3359375 C203.07884272 365.29382927 199.48803731 377.04592325 189.046875 388.10546875 C179.20181674 397.43236605 167.32338068 400.76866203 153.96484375 400.6328125 C142.24061747 399.71503955 131.29755502 394.72479966 123.171875 386.23046875 C114.29399345 375.53747376 110.33252394 363.16236008 111.421875 349.35546875 C111.751875 348.36546875 112.081875 347.37546875 112.421875 346.35546875 C111.54321777 346.08814941 110.66456055 345.82083008 109.75927734 345.54541016 C106.55865915 344.40423875 103.93032503 343.06053877 101.0234375 341.31640625 C100.05019531 340.73632812 99.07695312 340.15625 98.07421875 339.55859375 C96.57568359 338.65367187 96.57568359 338.65367187 95.046875 337.73046875 C94.02464844 337.11945313 93.00242187 336.5084375 91.94921875 335.87890625 C89.43695427 334.37624338 86.92801779 332.8683116 84.421875 331.35546875 C84.16374023 332.0513208 83.90560547 332.74717285 83.63964844 333.46411133 C82.28796608 336.67340848 80.6709359 339.59670464 78.9375 342.6171875 C78.43038483 343.50323418 78.43038483 343.50323418 77.9130249 344.40718079 C77.19841314 345.65440246 76.48225738 346.90074062 75.76464844 348.14624023 C74.6861703 350.01815638 73.61217975 351.89258462 72.5390625 353.76757812 C71.15812065 356.17743747 69.77091317 358.5834876 68.37695312 360.98583984 C67.12359779 363.14603094 65.87688447 365.31009757 64.63867188 367.47900391 C64.10822266 368.39343262 63.57777344 369.30786133 63.03125 370.25 C62.57202148 371.04897705 62.11279297 371.8479541 61.63964844 372.67114258 C61.2377832 373.22697021 60.83591797 373.78279785 60.421875 374.35546875 C59.761875 374.35546875 59.101875 374.35546875 58.421875 374.35546875 C58.4125293 373.22753906 58.40318359 372.09960938 58.39355469 370.9375 C58.35308158 366.67280406 58.28717815 362.40878708 58.21435547 358.14453125 C58.18647284 356.31389214 58.16509932 354.48313996 58.15087891 352.65234375 C57.93537713 326.44732808 50.94835291 303.65768889 31.94824219 284.77783203 C27.33627128 280.4801125 22.06134501 276.17520376 16.421875 273.35546875 C17.85869621 270.2270206 19.6388345 267.70327747 21.734375 264.98046875 C31.08204102 251.86641538 33.1179092 235.85010601 30.99609375 220.21875 C27.49112343 205.83331966 19.46107616 192.82482881 7.109375 184.54296875 C-7.9645782 175.6906749 -23.39723426 172.09574377 -40.578125 176.35546875 C-55.9070534 181.25616705 -68.31062295 189.99642837 -75.94848633 204.30834961 C-83.22437561 218.69200535 -85.34594476 234.14114715 -80.515625 249.79296875 C-78.05618696 257.17037567 -74.4957629 264.53621902 -68.8671875 270.0234375 C-67.578125 271.35546875 -67.578125 271.35546875 -67.578125 273.35546875 C-69.4140625 274.765625 -69.4140625 274.765625 -71.953125 276.41796875 C-91.01363726 289.48342568 -103.50365269 308.20074044 -108.10375977 330.95556641 C-108.69745203 335.21071745 -108.80955379 339.40003176 -108.89453125 343.69140625 C-108.91531235 344.57075836 -108.93609344 345.45011047 -108.95750427 346.35610962 C-109.02255463 349.14748806 -109.08167648 351.93895546 -109.140625 354.73046875 C-109.18385262 356.6302173 -109.22746823 358.52995706 -109.27148438 360.4296875 C-109.37819001 365.07152489 -109.47958115 369.71345121 -109.578125 374.35546875 C-110.238125 374.35546875 -110.898125 374.35546875 -111.578125 374.35546875 C-111.98538818 373.64640381 -112.39265137 372.93733887 -112.81225586 372.20678711 C-114.71191726 368.90133876 -116.61345338 365.59697284 -118.515625 362.29296875 C-118.85626984 361.70088623 -119.19691467 361.10880371 -119.54788208 360.4987793 C-123.98436241 352.79109794 -128.44767241 345.1034489 -133.13842773 337.54663086 C-135.578125 333.56638619 -135.578125 333.56638619 -135.578125 331.35546875 C-136.74384033 332.03706055 -136.74384033 332.03706055 -137.93310547 332.73242188 C-140.8122973 334.41313556 -143.69368365 336.08995336 -146.57666016 337.76416016 C-147.82496197 338.49014365 -149.07236365 339.21767717 -150.31884766 339.94677734 C-152.1086676 340.99333077 -153.90163012 342.03430258 -155.6953125 343.07421875 C-157.31348877 344.0168457 -157.31348877 344.0168457 -158.96435547 344.97851562 C-161.578125 346.35546875 -161.578125 346.35546875 -163.578125 346.35546875 C-163.41828125 346.93425781 -163.2584375 347.51304687 -163.09375 348.109375 C-160.85108598 357.8785554 -163.40760135 369.11625653 -168.328125 377.66796875 C-176.6612847 390.26983035 -186.59439827 397.27519043 -201.578125 400.35546875 C-213.87430729 401.63842329 -226.21984466 399.06071887 -236.08203125 391.4140625 C-245.46118576 383.37678405 -252.37452878 373.9553805 -253.80566406 361.3515625 C-254.87424687 346.75431808 -251.56750922 334.66075155 -241.91796875 323.421875 C-232.96782246 313.94165171 -221.6282511 309.27690935 -208.578125 308.85546875 C-198.99934541 309.16480573 -190.00117656 311.57760379 -182.359375 317.5 C-179.77551346 318.7409335 -178.32266887 318.09571368 -175.578125 317.35546875 C-173.70440402 316.44140437 -171.86558297 315.45383842 -170.05859375 314.4140625 C-169.03701172 313.83076172 -168.01542969 313.24746094 -166.96289062 312.64648438 C-165.90779297 312.03482422 -164.85269531 311.42316406 -163.765625 310.79296875 C-162.15397461 309.86967773 -162.15397461 309.86967773 -160.50976562 308.92773438 C-157.86224982 307.40982531 -155.21860644 305.88557111 -152.578125 304.35546875 C-156.57478766 296.98414356 -160.63698352 289.65361708 -164.765625 282.35546875 C-165.32008301 281.3694165 -165.87454102 280.38336426 -166.44580078 279.36743164 C-169.19894854 274.48649509 -171.99003485 269.63947815 -174.90234375 264.8515625 C-175.6744519 263.56862305 -175.6744519 263.56862305 -176.4621582 262.25976562 C-177.43223333 260.65478133 -178.41581522 259.05785778 -179.41479492 257.47070312 C-179.84767822 256.75076172 -180.28056152 256.03082031 -180.7265625 255.2890625 C-181.10989746 254.67087646 -181.49323242 254.05269043 -181.88818359 253.41577148 C-183.19131498 249.5243611 -182.00843161 246.26710581 -180.30981445 242.66845703 C-179.50870239 241.31083252 -179.50870239 241.31083252 -178.69140625 239.92578125 C-178.0888501 238.89372559 -177.48629395 237.86166992 -176.86547852 236.79833984 C-176.21377686 235.70344238 -175.5620752 234.60854492 -174.890625 233.48046875 C-173.87763172 231.75293477 -172.86464376 230.02539764 -171.85203552 228.29763794 C-170.80364921 226.51227114 -169.75099092 224.7294858 -168.69726562 222.94726562 C-166.60694158 219.40923957 -164.53521272 215.86059771 -162.46875 212.30859375 C-159.1783864 206.65373178 -155.88090954 201.00308401 -152.578125 195.35546875 C-157.1467195 191.81467658 -162.08737242 189.00376197 -167.078125 186.10546875 C-168.02816406 185.53828125 -168.97820312 184.97109375 -169.95703125 184.38671875 C-170.87355469 183.855625 -171.79007812 183.32453125 -172.734375 182.77734375 C-173.56775391 182.2884668 -174.40113281 181.79958984 -175.25976562 181.29589844 C-177.94530105 180.20652581 -178.92396366 180.31107777 -181.578125 181.35546875 C-183.51086602 182.30251185 -185.42625143 183.28536993 -187.328125 184.29296875 C-198.69837344 190.00549116 -209.83378598 191.23001833 -222.328125 187.79296875 C-228.56334558 185.63870762 -233.52147378 182.55445475 -238.578125 178.35546875 C-239.22523438 177.83210937 -239.87234375 177.30875 -240.5390625 176.76953125 C-248.41264124 169.72113107 -253.03556462 158.78417837 -253.9140625 148.375 C-254.23509272 133.41710823 -250.64428731 121.66501425 -240.203125 110.60546875 C-230.35806674 101.27857145 -218.47963068 97.94227547 -205.12109375 98.078125 C-193.39686747 98.99589795 -182.45380502 103.98613784 -174.328125 112.48046875 C-165.78124275 122.77479049 -161.45983713 134.98802767 -162.578125 148.35546875 C-162.88191217 149.69584267 -163.20722394 151.03209379 -163.578125 152.35546875 C-162.69946777 152.62278809 -161.82081055 152.89010742 -160.91552734 153.16552734 C-157.71490915 154.30669875 -155.08657503 155.65039873 -152.1796875 157.39453125 C-151.20644531 157.97460938 -150.23320312 158.5546875 -149.23046875 159.15234375 C-148.23144531 159.755625 -147.23242188 160.35890625 -146.203125 160.98046875 C-144.66978516 161.89699219 -144.66978516 161.89699219 -143.10546875 162.83203125 C-140.59320427 164.33469412 -138.08426779 165.8426259 -135.578125 167.35546875 C-135.18439697 166.29972656 -135.18439697 166.29972656 -134.78271484 165.22265625 C-133.49293904 162.15270752 -131.96636593 159.36603462 -130.3046875 156.48046875 C-129.98084076 155.91585937 -129.65699402 155.35125 -129.32333374 154.76953125 C-128.28630988 152.96307265 -127.24486594 151.15921041 -126.203125 149.35546875 C-124.86188596 147.02218899 -123.52074299 144.68885401 -122.1796875 142.35546875 C-120.66117188 139.71546875 -119.14265625 137.07546875 -117.578125 134.35546875 C-113.618125 127.42546875 -109.658125 120.49546875 -105.578125 113.35546875 C-84.128125 113.35546875 -62.678125 113.35546875 -40.578125 113.35546875 C-40.908125 102.79546875 -41.238125 92.23546875 -41.578125 81.35546875 C-44.878125 79.70546875 -48.178125 78.05546875 -51.578125 76.35546875 C-61.43658529 69.32675169 -67.63539631 60.04669194 -70.578125 48.35546875 C-71.01267814 45.09248491 -71.10343018 41.89482171 -71.078125 38.60546875 C-71.07240479 37.73365967 -71.06668457 36.86185059 -71.06079102 35.96362305 C-70.71006803 23.17817592 -65.65081692 13.82981972 -56.99609375 4.68359375 C-41.74951 -9.70977485 -17.37512065 -11.0832209 0 0 Z " fill="#ffdb70" transform="translate(281.578125,6.64453125)"/>
<path d="M0 0 C9.74986965 9.33025501 17.63455363 21.99418385 18.30775452 35.77400208 C18.30553391 36.63337875 18.30331329 37.49275543 18.30102539 38.37817383 C18.30091209 39.84913261 18.30091209 39.84913261 18.30079651 41.34980774 C18.29563522 42.3958165 18.29047394 43.44182526 18.28515625 44.51953125 C18.2837413 45.60006271 18.28232635 46.68059418 18.28086853 47.79386902 C18.2752808 51.23760776 18.2627305 54.68128098 18.25 58.125 C18.24498342 60.46288968 18.24042079 62.80078039 18.23632812 65.13867188 C18.22616722 70.86332668 18.20658927 76.58784017 18.1875 82.3125 C4.9875 82.3125 -8.2125 82.3125 -21.8125 82.3125 C-21.4825 92.8725 -21.1525 103.4325 -20.8125 114.3125 C-15.8625 116.7875 -15.8625 116.7875 -10.8125 119.3125 C-0.95403971 126.34121706 5.24477131 135.62127681 8.1875 147.3125 C8.62205314 150.57548384 8.71280518 153.77314704 8.6875 157.0625 C8.68177979 157.93430908 8.67605957 158.80611816 8.67016602 159.7043457 C8.31944303 172.48979283 3.26019192 181.83814903 -5.39453125 190.984375 C-15.92492041 200.92547231 -27.87670358 202.88211837 -41.671875 202.65234375 C-54.00955449 202.10776852 -63.70399375 195.91277981 -72 187.125 C-81.73375403 175.16172689 -83.14252199 162.12689879 -81.8125 147.3125 C-79.18617251 135.58235569 -72.33712155 126.41560759 -62.8125 119.3125 C-59.5125 117.6625 -56.2125 116.0125 -52.8125 114.3125 C-52.4825 103.7525 -52.1525 93.1925 -51.8125 82.3125 C-65.0125 82.3125 -78.2125 82.3125 -91.8125 82.3125 C-91.90487788 75.57148098 -91.98435248 68.83270297 -92.03222656 62.09155273 C-92.05220626 59.80371615 -92.07939951 57.51592974 -92.11425781 55.22827148 C-92.474872 30.93454242 -92.474872 30.93454242 -87.8125 20.3125 C-87.50143311 19.55300049 -87.19036621 18.79350098 -86.86987305 18.01098633 C-81.21070346 4.79142628 -69.44211492 -4.28699417 -56.484375 -9.72265625 C-37.47728271 -16.58632847 -15.84699608 -12.39880712 0 0 Z " fill="#ffdb70" transform="translate(292.8125,309.6875)"/>
<path d="M0 0 C6.61643253 3.94977591 12.82959222 10.18566151 15.08984375 17.71484375 C16.96617461 28.45460419 15.72097436 37.01381002 9.5 46.0625 C4.46492108 52.13889695 -2.70243823 55.44141539 -10.45703125 56.4453125 C-19.07313231 56.7771264 -26.29556722 54.7060411 -33.25 49.5625 C-39.69533975 43.43866176 -42.84917958 35.6727202 -43.125 26.875 C-42.67918288 17.8694942 -39.72023302 11.38642949 -33.51953125 4.859375 C-24.45406065 -3.20661431 -11.14782774 -4.93738667 0 0 Z " fill="#ffdb70" transform="translate(269.5,211.9375)"/>
</svg>